<?xml version="1.0" encoding="utf-8"?>
<?xml-stylesheet type="text/xsl" href="rss1.xsl"?>
<rss version="2.0" xmlns:atom="http://www.w3.org/2005/Atom" xmlns:content="http://purl.org/rss/1.0/modules/content/" xmlns:dc="http://purl.org/dc/elements/1.1/" xmlns:media="http://search.yahoo.com/mrss/">
<channel>
 <title>Getty</title>
 <link>http://www.gettyimg.com/</link>
 <atom:link href="http://www.gettyimg.com/" rel="self" type="application/rss+xml" />

 
                <item>
                <title><![CDATA[【Requests】Filled - Celine Dion - To Love You More (Remixes)]]></title>
                <link><![CDATA[https://sharemania.us/threads/celine-dion-to-love-you-more-remixes.234831/]]></link>
                <description><![CDATA[<article>
<blockquote class="messageText SelectQuoteContainer ugc baseHtml">
I'm looking for a Lossless rip of these remixes and versions of this Celine song please!<br>
<br>
<a href="https://www.discogs.com/release/15651387-C%C3%A9line-Dion-To-Love-You-More" target="_blank" class="externalLink" rel="nofollow">https://www.discogs.com/release/15651387-Céline-Dion-To-Love-You-More</a>
<div class="messageTextEndMarker">&nbsp;</div>
</blockquote>
</article>]]></description>
                <author><![CDATA[XAnon777]]></author>
                </item>

                
                <item>
                <title><![CDATA[【MASTER &amp; MASTER RIP】MASTER - Enrique Iglesias, Wisin – Duele El Corazón (MasterRip AVC 1080p PCM 2.0) – 2022]]></title>
                <link><![CDATA[https://sharemania.us/threads/enrique-iglesias-wisin-%E2%80%93-duele-el-coraz%C3%B3n-masterrip-avc-1080p-pcm-2-0-%E2%80%93-2022.234832/]]></link>
                <description><![CDATA[<article>
<blockquote class="messageText SelectQuoteContainer ugc baseHtml">
<div style="text-align: center"><span style="font-size: 15px"><img src="https://i.imgur.com/yOnC473.jpg" class="bbCodeImage LbImage" alt="[​IMG]" data-url="https://i.imgur.com/yOnC473.jpg" style=""> </span><br>
​</div>
<div class="ToggleTriggerAnchor bbCodeSpoilerContainer">
<button type="button" class="button bbCodeSpoilerButton ToggleTrigger Tooltip JsOnly" data-target="> .SpoilerTarget"><span>Spoiler: <span class="SpoilerTitle">MediaInfo</span></span></button>
<div class="SpoilerTarget bbCodeSpoilerText"><span style="font-family: 'Times New Roman'"><span style="font-size: 15px">General<br>
Unique ID : 279060103035320215656409999133681967988 (0xD1F10557DD3B318B6BAED4F9D1F4E374)<br>
Complete name : N:\Asia\TELEDYSKI\Enrique Iglesias, Wisin – Duele El Corazón (MasterRip AVC 1080p PCM 2.0) – 2016.mkv<br>
Format : Matroska<br>
Format version : Version 4<br>
File size : 1.03 GiB<br>
Duration : 3 min 25 s<br>
Overall bit rate : 43.1 Mb/s<br>
Encoded date : UTC 2023-12-28 21:06:38<br>
Writing application : mkvmerge v78.0 ('Running') 64-bit<br>
Writing library : libebml v1.4.4 + libmatroska v1.7.1<br>
<br>
Video<br>
ID : 1<br>
Format : AVC<br>
Format/Info : Advanced Video Codec<br>
Format profile : High@L5.1<br>
Format settings : CABAC / 1 Ref Frames<br>
Format settings, CABAC : Yes<br>
Format settings, Reference frames : 1 frame<br>
Format settings, GOP : M=1, N=30<br>
Codec ID : V_MPEG4/ISO/AVC<br>
Duration : 3 min 25 s<br>
Bit rate : 41.5 Mb/s<br>
Width : 1 920 pixels<br>
Height : 1 080 pixels<br>
Display aspect ratio : 16:9<br>
Frame rate mode : Constant<br>
Frame rate : 23.976 (24000/1001) FPS<br>
Color space : YUV<br>
Chroma subsampling : 4:2:0<br>
Bit depth : 8 bits<br>
Scan type : Progressive<br>
Bits/(Pixel*Frame) : 0.836<br>
Stream size : 1 016 MiB (96%)<br>
Language : English<br>
Default : Yes<br>
Forced : No<br>
<br>
Audio<br>
ID : 2<br>
Format : PCM<br>
Format settings : Little / Signed<br>
Codec ID : A_PCM/INT/LIT<br>
Duration : 3 min 25 s<br>
Bit rate mode : Constant<br>
Bit rate : 1 536 kb/s<br>
Channel(s) : 2 channels<br>
Sampling rate : 48.0 kHz<br>
Frame rate : 23.976 (24000/1001) FPS (2002 SPF)<br>
Bit depth : 16 bits<br>
Stream size : 37.6 MiB (4%)<br>
Language : English<br>
Default : Yes<br>
Forced : No<br>
<br>
<br>
</span></span></div>
</div><br>
<div style="text-align: center"><span style="font-family: 'Times New Roman'"><span style="font-size: 15px"><br>
<div class="bbCodeBlock bbCodeVfcHH HiddenContent">
<div class="attribution type">Hidden Content:</div>
<blockquote>You must either reply or click 'Like' to see the hidden information contained here.</blockquote>
</div></span></span><span style="font-size: 15px"><br>
<br>
</span>​</div>
<div class="messageTextEndMarker">&nbsp;</div>
</blockquote>
</article>]]></description>
                <author><![CDATA[mariellisaa]]></author>
                </item>

                
                <item>
                <title><![CDATA[【MASTER &amp; MASTER RIP】MASTER - Enrique Iglesias, Bad Bunny – El Bano (MasterRip AVC 1080p PCM 2.0) – 2018]]></title>
                <link><![CDATA[https://sharemania.us/threads/enrique-iglesias-bad-bunny-%E2%80%93-el-bano-masterrip-avc-1080p-pcm-2-0-%E2%80%93-2018.234833/]]></link>
                <description><![CDATA[<article>
<blockquote class="messageText SelectQuoteContainer ugc baseHtml">
<div style="text-align: center"><span style="font-size: 15px"><img src="https://i.imgur.com/KisAZjG.jpg" class="bbCodeImage LbImage" alt="[​IMG]" data-url="https://i.imgur.com/KisAZjG.jpg" style=""> </span><br>
​</div>
<div class="ToggleTriggerAnchor bbCodeSpoilerContainer">
<button type="button" class="button bbCodeSpoilerButton ToggleTrigger Tooltip JsOnly" data-target="> .SpoilerTarget"><span>Spoiler: <span class="SpoilerTitle">MediaInfo</span></span></button>
<div class="SpoilerTarget bbCodeSpoilerText"><span style="font-family: 'Times New Roman'"><span style="font-size: 15px">General<br>
Unique ID : 78276772947228835632355161053142003392 (0x3AE38EDF705B0381F7199A0599552EC0)<br>
Complete name : N:\Asia\TELEDYSKI\Enrique Iglesias, Bad Bunny – El Bano (MasterRip AVC 1080p PCM 2.0) – 2018.mkv<br>
Format : Matroska<br>
Format version : Version 4<br>
File size : 1.19 GiB<br>
Duration : 4 min 12 s<br>
Overall bit rate : 40.6 Mb/s<br>
Encoded date : UTC 2023-12-24 13:12:04<br>
Writing application : mkvmerge v78.0 ('Running') 64-bit<br>
Writing library : libebml v1.4.4 + libmatroska v1.7.1<br>
<br>
Video<br>
ID : 1<br>
Format : AVC<br>
Format/Info : Advanced Video Codec<br>
Format profile : High@L4.2<br>
Format settings : CABAC / 4 Ref Frames<br>
Format settings, CABAC : Yes<br>
Format settings, Reference frames : 4 frames<br>
Codec ID : V_MPEG4/ISO/AVC<br>
Duration : 4 min 12 s<br>
Bit rate : 39.1 Mb/s<br>
Width : 1 920 pixels<br>
Height : 1 080 pixels<br>
Display aspect ratio : 16:9<br>
Frame rate mode : Constant<br>
Frame rate : 23.976 (24000/1001) FPS<br>
Color space : YUV<br>
Chroma subsampling : 4:2:0<br>
Bit depth : 8 bits<br>
Scan type : Progressive<br>
Bits/(Pixel*Frame) : 0.786<br>
Stream size : 1.15 GiB (96%)<br>
Language : English<br>
Default : Yes<br>
Forced : No<br>
Color range : Limited<br>
Color primaries : BT.709<br>
Transfer characteristics : BT.709<br>
Matrix coefficients : BT.709<br>
<br>
Audio<br>
ID : 2<br>
Format : PCM<br>
Format settings : Little / Signed<br>
Codec ID : A_PCM/INT/LIT<br>
Duration : 4 min 12 s<br>
Bit rate mode : Constant<br>
Bit rate : 1 536 kb/s<br>
Channel(s) : 2 channels<br>
Sampling rate : 48.0 kHz<br>
Frame rate : 2.001 FPS (23988 SPF)<br>
Bit depth : 16 bits<br>
Stream size : 46.2 MiB (4%)<br>
Default : Yes<br>
Forced : No<br>
<br>
<br>
</span></span></div>
</div><br>
<div style="text-align: center"><span style="font-family: 'Times New Roman'"><span style="font-size: 15px"><br>
<div class="bbCodeBlock bbCodeVfcHH HiddenContent">
<div class="attribution type">Hidden Content:</div>
<blockquote>You must either reply or click 'Like' to see the hidden information contained here.</blockquote>
</div></span></span>​</div>
<div class="messageTextEndMarker">&nbsp;</div>
</blockquote>
</article>]]></description>
                <author><![CDATA[mariellisaa]]></author>
                </item>

                
                <item>
                <title><![CDATA[【MASTER &amp; MASTER RIP】MASTER - Enrique Iglesias, Farruko – Me Pasé (MasterRip AVC 1080p PCM 2.0) – 2021]]></title>
                <link><![CDATA[https://sharemania.us/threads/enrique-iglesias-farruko-%E2%80%93-me-pas%C3%A9-masterrip-avc-1080p-pcm-2-0-%E2%80%93-2021.234834/]]></link>
                <description><![CDATA[<article>
<blockquote class="messageText SelectQuoteContainer ugc baseHtml">
<div style="text-align: center"><span style="font-family: 'Times New Roman'"><img src="https://i.imgur.com/RCugeC9.jpg" class="bbCodeImage LbImage" alt="[​IMG]" data-url="https://i.imgur.com/RCugeC9.jpg" style=""> <br>
</span>​</div>
<div class="ToggleTriggerAnchor bbCodeSpoilerContainer">
<button type="button" class="button bbCodeSpoilerButton ToggleTrigger Tooltip JsOnly" data-target="> .SpoilerTarget"><span>Spoiler: <span class="SpoilerTitle">MediaInfo</span></span></button>
<div class="SpoilerTarget bbCodeSpoilerText"><span style="font-family: 'Times New Roman'">General<br>
Unique ID : 259890669431640044118980181912771942302 (0xC3851F4BF1006FBE1C2AC6CD69A0D79E)<br>
Complete name : N:\Asia\TELEDYSKI\Enrique Iglesias, Farruko – Me Pasé (MasterRip AVC 1080p PCM 2.0) – 2021.mkv<br>
Format : Matroska<br>
Format version : Version 4<br>
File size : 1.00 GiB<br>
Duration : 3 min 24 s<br>
Overall bit rate : 42.1 Mb/s<br>
Encoded date : UTC 2023-12-28 21:20:05<br>
Writing application : mkvmerge v78.0 ('Running') 64-bit<br>
Writing library : libebml v1.4.4 + libmatroska v1.7.1<br>
<br>
Video<br>
ID : 1<br>
Format : AVC<br>
Format/Info : Advanced Video Codec<br>
Format profile : High@L5.1<br>
Format settings : CABAC / 1 Ref Frames<br>
Format settings, CABAC : Yes<br>
Format settings, Reference frames : 1 frame<br>
Format settings, GOP : M=1, N=30<br>
Codec ID : V_MPEG4/ISO/AVC<br>
Duration : 3 min 24 s<br>
Bit rate : 40.5 Mb/s<br>
Width : 1 920 pixels<br>
Height : 1 080 pixels<br>
Display aspect ratio : 16:9<br>
Frame rate mode : Constant<br>
Frame rate : 24.000 FPS<br>
Color space : YUV<br>
Chroma subsampling : 4:2:0<br>
Bit depth : 8 bits<br>
Scan type : Progressive<br>
Bits/(Pixel*Frame) : 0.815<br>
Stream size : 988 MiB (96%)<br>
Language : English<br>
Default : Yes<br>
Forced : No<br>
<br>
Audio<br>
ID : 2<br>
Format : PCM<br>
Format settings : Little / Signed<br>
Codec ID : A_PCM/INT/LIT<br>
Duration : 3 min 24 s<br>
Bit rate mode : Constant<br>
Bit rate : 1 536 kb/s<br>
Channel(s) : 2 channels<br>
Sampling rate : 48.0 kHz<br>
Frame rate : 25.000 FPS (1920 SPF)<br>
Bit depth : 16 bits<br>
Stream size : 37.5 MiB (4%)<br>
Default : Yes<br>
Forced : No<br>
<br>
<br>
</span></div>
</div><br>
<div style="text-align: center"><span style="font-family: 'Times New Roman'"><br>
<div class="bbCodeBlock bbCodeVfcHH HiddenContent">
<div class="attribution type">Hidden Content:</div>
<blockquote>You must either reply or click 'Like' to see the hidden information contained here.</blockquote>
</div><br>
</span>​</div>
<div class="messageTextEndMarker">&nbsp;</div>
</blockquote>
</article>]]></description>
                <author><![CDATA[mariellisaa]]></author>
                </item>

                </channel></rss>